. 
 
http://www.torrenting.com          :     Once & For all ;)


               www . Torrenting . Com 

(((((((((((((= Enjoy No RAR releases =))))))))))))))))))))


...................................NFO:....................................

.[img]http://img834.imageshack.us/img834/3466/superkpostere1318859650p.jpg[/img]


[color=blue][size=5][b]Super.K.2011.DVDRip.XVID.AC3.HQ.Hive-CM8[/b][/size][/color]


[b]Thx Hive

CM8 Doing It Right The First Time :D


Source: DVD-R

Encode:
firstly this is a hindi animation movie but had a eng audio track too.
so this is the english version, cant be lipsync since its not the original voice.
Dvd has a watermark at the right bottom corner which is semi-transparent. dont wanted to blurr it.
still your decision if you like it or not.
Did the usual animation cleanup
got very nice too
enjoy

Video: 720x304 @bitrate 1700 2pass
Audio: English AC3 5.1 @448
Sample: Yes, included[/b]
 
http://www.imdb.com/title/tt2070831/


General
Complete name                  : Super.K.2011.DVDRip.XVID.AC3.HQ.Hive-CM8.avi
Format                         : AVI
Format/Info                    : Audio Video Interleave
File size                      : 1.38 GiB
Duration                       : 1h 31mn
Overall bit rate               : 2 155 Kbps
Writing application            : Nandub v1.0rc2
Writing library                : Nandub build 1853/release

Video
ID                             : 0
Format                         : MPEG-4 Visual
Format profile                 : Advanced Simple@L5
Format settings, BVOP          : 2
Format settings, QPel          : Yes
Format settings, GMC           : No warppoints
Format settings, Matrix        : Default (H.263)
Muxing mode                    : Packed bitstream
Codec ID                       : XVID
Codec ID/Hint                  : XviD
Duration                       : 1h 31mn
Bit rate                       : 1 698 Kbps
Width                          : 720 pixels
Height                         : 304 pixels
Display aspect ratio           : 2.35:1
Frame rate                     : 23.976 fps
Color space                    : YUV
Chroma subsampling             : 4:2:0
Bit depth                      : 8 bits
Scan type                      : Progressive
Compression mode               : Lossy
Bits/(Pixel*Frame)             : 0.324
Stream size                    : 1.09 GiB (79%)
Writing library                : XviD 1.2.1 (UTC 2008-12-04)

Audio
ID                             : 1
Format                         : AC-3
Format/Info                    : Audio Coding 3
Mode extension                 : CM (complete main)
Codec ID                       : 2000
Duration                       : 1h 31mn
Bit rate mode                  : Constant
Bit rate                       : 448 Kbps
Channel(s)                     : 6 channels
Channel positions              : Front: L C R, Side: L R, LFE
Sampling rate                  : 48.0 KHz
Bit depth                      : 16 bits
Compression mode               : Lossy
Delay relative to video        : 50ms
Stream size                    : 293 MiB (21%)
Alignment                      : Split accross interleaves
Interleave, duration           : 42 ms (1.00 video frame)
Interleave, preload duration   : 500 ms


Plot:
Super K and his friends come together to protect Dreamzone from the
evil clutches of Dr. Ozox. But Super K must learn to control his
powers.


Cast:
Super K
Badmess
Kiara
Cyberbaba
Dr Ozox


[img]http://img171.imageshack.us/img171/3363/81779924.png[/img]
[img]http://img36.imageshack.us/img36/9571/susug.png[/img]
[img]http://img855.imageshack.us/img855/5817/sususul.png[/img]
[img]http://img21.imageshack.us/img21/2728/susususu.png[/img]
[img]http://img696.imageshack.us/img696/3697/susssuuusususususu.png[/img]
[img]http://img707.imageshack.us/img707/9799/sussuususususu.png[/img]
[img]http://img97.imageshack.us/img97/6444/sussuusususususu.png[/img]
[img]http://img715.imageshack.us/img715/1928/sususususux.png[/img]
[img]http://img846.imageshack.us/img846/237/susususususu.png[/img]



Greetz

ViSiON,SPK,SANTi,3LT0N,FUSiON,YanKeeS,MAGNET,Feel-Free,THC,LKRG,BHRG
FANTASIA-PLAY,FANTASIA-M,FLAWL3SS,WBZ,ZMG,NOVA,D2U,Vik,Rapeseed
T0XiC,SAFC,goldadvance,MEMORY100,KaN1vE,Unevano,Pinnz,Wayne
Mr Hive,and most P2P groups
Great Work Guys :D

LOOKING FOR ANYTHING YOU WANT TO LOOK AND SOUND BETTER

CM8@hushmail.com